<svg id="Layer_1" enable-background="new 0 0 64 64" height="512" viewBox="0 0 64 64" width="512" xmlns="http://www.w3.org/2000/svg">
<path fill="#38b0e5" d="m36 40.4s-.1-.1-.1-.1l-.2-.2s-.1-.1-.1-.1h-2.2l-1.7 1.7-1.4-1.4 2.3-2.3h2.2c0-.3.1-.7.2-1v-18.6l-3-3-3 3v30.6h6v-4l-.7-.7 1.7-1.7z"/><circle fill="#38b0e5" cx="43" cy="33" r="2"/><path fill="#38b0e5" d="m22 29.1v-3.3c-.7.2-1.3.2-2 0v3.3c.7-.1 1.3-.1 2 0z"/><circle fill="#38b0e5" cx="43" cy="22" r="2"/><path fill="#38b0e5" d="m53.1 17.5-10.1-10.1v3.2l8.5 8.5c.4-.7.9-1.2 1.6-1.6z"/><path fill="#38b0e5" d="m20 36.9v3.1c0 .6.4 1 1 1s1-.4 1-1v-3.1c-.7.1-1.3.1-2 0z"/><circle fill="#38b0e5" cx="21" cy="33" r="2"/><path fill="#38b0e5" d="m44 29.1v-3.3c-.7.2-1.3.2-2 0v3.3c.7-.1 1.3-.1 2 0z"/><path fill="#38b0e5" d="m39.5 34.9-2.4 2.4c-.4.4-.4 1 0 1.4l.2.2c.4.4 1 .4 1.4 0l2.4-2.4c-.7-.4-1.2-.9-1.6-1.6z"/><path fill="#38b0e5" d="m53 57h-9v-5c0-.6-.4-1-1-1h-22c-.6 0-1 .4-1 1v5h-9c-.6 0-1 .4-1 1v2h44v-2c0-.6-.4-1-1-1z"/><path fill="#38b0e5" d="m10 24.9c-.3 0-.7.1-1 .1s-.7-.1-1-.1v12.1c0 .6.4 1 1 1s1-.4 1-1z"/><circle fill="#38b0e5" cx="9" cy="21" r="2"/><circle fill="#38b0e5" cx="55" cy="21" r="2"/><path fill="#38b0e5" d="m54 24.9v12.1c0 .6.4 1 1 1s1-.4 1-1v-12.1c-.7.1-1.3.1-2 0z"/><path fill="#38b0e5" d="m24 12h16c.6 0 1-.4 1-1v-6c0-.6-.4-1-1-1h-16c-.6 0-1 .4-1 1v6c0 .6.4 1 1 1zm5-5h6v2h-6z"/><path fill="#38b0e5" d="m12.5 19.1 8.5-8.5v-3.2l-10.1 10.1c.7.4 1.2.9 1.6 1.6z"/><path fill="#38b0e5" d="m33.4 14 6.1 6.1c.4-.7.9-1.2 1.6-1.6l-4.5-4.5z"/><path fill="#38b0e5" d="m24.5 20.1 6.1-6.1h-3.2l-4.5 4.5c.7.4 1.2.9 1.6 1.6z"/><circle fill="#38b0e5" cx="21" cy="22" r="2"/></svg>